<?xml version="1.0" encoding="UTF-8"?>
<svg version="1.1" viewBox="0 0 1980 2016" width="495" height="504" xmlns="http://www.w3.org/2000/svg">
<path transform="translate(737,381)" d="m0 0h23l33 2 31 4 36 8 29 9 27 10 20 9 17 8 23 13 23 14 14 10 11 9-2 5-9 10-7 8-11 12-9 10-7 8-24 26-9 10-4 5-4-1-13-10-20-13-21-12-20-9-22-8-21-6-36-6-21-2h-33l-21 2-29 5-25 7-21 8-25 12-17 10-17 12-14 11-13 12-17 17-9 11-10 13-12 17-12 21-13 27-8 22-8 28-5 28-2 19v44l4 34 6 27 5 16 8 22 12 25 10 17 8 12 12 16 9 11 15 16 8 8 22 18 17 12 24 14 25 12 19 7 30 8 28 4 10 1h46l34-4 26-6 16-5 21-8 21-10 21-13 5-4h2v-175h-202v-3l14-17 10-13 12-18 11-14 10-13 11-14 10-13 9-12 7-9h232l1 1v361l-10 9-17 13-18 13-19 12-16 9-24 13-32 14-36 12-32 8-28 5-26 3-17 1h-38l-29-2-28-4-27-6-29-9-27-10-28-13-26-14-22-14-19-14-16-13-11-9-9-9-8-7-11-12-10-11-22-28-11-16-13-21-16-31-12-29-10-31-7-28-4-20-3-22-2-23-1-18v-23l2-30 4-29 7-34 8-28 10-28 9-20 11-23 14-24 10-16 10-14 13-17 11-13 12-13 22-22 8-7 16-13 18-13 17-11 21-12 16-8 22-10 25-9 31-9 28-6 21-3 22-2z" fill="#1D2836"/>
<path transform="translate(1113,759)" d="m0 0h410l-1 4-16 29-13 23-16 29-18 34-4 6-29 1h-189v338l-1 1h-122l-1-1z" fill="#1D2836"/>
<path transform="translate(1116,385)" d="m0 0h515l1 1v124l-1 1h-394l-1 83v90l-1 1-116 1-5-2v-298z" fill="#1D2836"/>
<path transform="translate(1116,385)" d="m0 0h373v1h-252v132l-1 76v90l-1 1-116 1-5-2v-298z" fill="#20A2C3"/>
<path transform="translate(654,1480)" d="m0 0h22l3 7 22 85 5 19 1 1 8-26 18-57 9-28 1-1h15l2 2 22 71 9 29 3 10 2 1 2-12 8-32 10-38 8-30 1-1h21l2 2-8 25-16 56-15 54-3 3h-20l-3-2-16-50-10-31-7-24h-2l-7 30-7 25-13 41-4 10-2 1h-20l-3-3-10-36-16-57-9-31-3-9z" fill="#1D2B3A"/>
<path transform="translate(525,1477)" d="m0 0h21l12 3 12 5 14 9 6 5 9 11 7 14 4 15v21l-5 19-8 14-11 12-13 9-15 6-13 3h-20l-13-3-14-6-13-9-7-7-7-10-6-12-3-11-1-7v-15l3-16 8-17 11-13 11-9 15-7zm2 20-13 4-10 6-7 6-7 11-4 10-2 8v17l4 13 6 11 9 9 10 6 11 4 16 1 15-3 11-6 8-7 7-10 5-12 1-5v-21l-5-15-8-11-9-8-13-6-8-2z" fill="#1D2A39"/>
<path transform="translate(303,1480)" d="m0 0h65l13 2 14 7 7 7 5 9 3 10v15l-3 10-6 9-7 7-10 5-4 1 2 5 14 24 16 28v1h-24l-5-8-16-29-9-16v-2h-33v55h-21l-1-1zm23 19-1 1v46h41l9-2 7-5 4-7 1-3v-13l-3-7-4-5-9-4-6-1z" fill="#1D2C3B"/>
<path transform="translate(1727,1480)" d="m0 0h9l8 1 7 8 9 12 14 19 16 21 10 14 13 17 8 11 1-102 4-1 17 1 1 2-1 136-1 1h-16l-4-2-8-11-11-14-24-32-10-14-20-26-4-6-2-1 1 2v103l-1 1h-17v-139z" fill="#1D2937"/>
<path transform="translate(174,1477)" d="m0 0h24l13 3 16 8 9 6 1 4-9 9-3 4-4-2-12-7-11-4-5-1h-16l-10 3-11 6-9 9-7 12-4 15v15l3 12 7 14 6 7 10 7 11 4 5 1h17l15-4 9-5 2-2 1-7 1-21h-31l-3-1v-18h53l1 1v56l-12 9-14 7-16 5-7 1h-20l-16-4-14-7-11-9-8-10-7-14-4-13-1-5v-21l4-17 8-16 7-9 9-8 11-6 9-4z" fill="#1D2A38"/>
<path transform="translate(1061,1480)" d="m0 0h20l1 1 1 57h72v-58h15l7 2v137l-1 1h-21l-1-61h-72v60l-1 1h-19l-2-1v-138z" fill="#1D2B39"/>
<path transform="translate(1589,1480)" d="m0 0h24l5 11 14 34 15 35 11 27 12 29 1 4h-23l-5-10-8-20-1-1-70-1-1 7-9 24-1 1h-23l1-5 17-40 15-35 13-32 8-20zm11 22-4 8-11 28-12 30v2l54-1-3-11-11-27-10-26z" fill="#1D2B39"/>
<path transform="translate(1388,1480)" d="m0 0h95v17l-2 2h-72v40h66l1 1-1 18-19 1h-47v42h75v18l-1 1h-95z" fill="#1D2938"/>
<path transform="translate(1240,1480)" d="m0 0h94l1 4-1 14-1 1h-71v42h63l1 4-1 15h-63v59l-1 1h-21l-1-139z" fill="#1D2A38"/>
<path transform="translate(892,1480)" d="m0 0h113l1 1v17l-1 1-46 1v120h-19l-2-1-1-119-45-1z" fill="#1D2937"/>
</svg>
